# xmcd
#
# Track frame offsets:
#	150
#	22820
#	46413
#	67980
#	87806
#	107285
#	128227
#	150067
#	174912
#	195450
#	218020
#	234841
#
# Disc length: 3361 seconds
#
# Revision: 2
# Processed by: cddbd v1.4PL0 Copyright (c) Steve Scherf et al.
# Submitted via: EasyCDDAExtractor 4.6.9.1
#
DISCID=7c0d1f0c
DTITLE=Emmylou Harris - Red Dirt Girl
DYEAR=2000
DGENRE=Folk
TTITLE0=The Pearl
TTITLE1=Michelangelo
TTITLE2=I Don't Wanna Talk About It Now
TTITLE3=Tragedy
TTITLE4=Red Dirt Girl
TTITLE5=My Baby Needs A Shepherd
TTITLE6=Bang The Drum Slowly
TTITLE7=J'ai Fait Tout
TTITLE8=One Big Love
TTITLE9=Hour Of Gold
TTITLE10=My Antonia
TTITLE11=Boy From Tupelo
EXTD=All songs by Emmylou Harris except where noted\nProduced by Malcolm Burn
EXTT0=
EXTT1=
EXTT2=
EXTT3=(Emmylou Harris and Rodney Crowell)
EXTT4=
EXTT5=
EXTT6=(Emmylou Harris and Guy Clark)
EXTT7=(Emmylou Harris and Jill Cunniff and Daryl Johnson)
EXTT8=(Patty Griffin and Angelo)
EXTT9=
EXTT10=
EXTT11=
PLAYORDER=
